<?xml version="1.0" encoding="UTF-8"?>
<svg id="Layer_1" xmlns="http://www.w3.org/2000/svg" version="1.1" viewBox="0 0 476.53 132.86">
  <!-- Generator: Adobe Illustrator 30.0.0, SVG Export Plug-In . SVG Version: 2.1.1 Build 123)  -->
  <defs>
    <style>
      .st0 {
        fill: #ebe6d8;
      }
    </style>
  </defs>
  <g>
    <path class="st0" d="M19.52,118.36v-7.77h1.14v7.77h-1.14ZM20.27,115.09v-1.07h4.47v1.07h-4.47ZM24.4,118.36v-7.77h1.14v7.77h-1.14Z"/>
    <path class="st0" d="M43.5,118.36l2.77-7.77h1.55l2.77,7.77h-1.16l-2.49-6.97h.21l-2.49,6.97h-1.16ZM44.96,115.47h4.19v1.07h-4.19v-1.07Z"/>
    <path class="st0" d="M69.7,118.36h-1.14v-7.77h1.14v7.77Z"/>
    <path class="st0" d="M88.63,118.36v-7.77h2.85c.53,0,1,.11,1.4.34.4.22.71.53.93.91s.33.81.33,1.28-.11.9-.33,1.28-.53.68-.93.9-.87.33-1.4.33h-1.92v-1.07h1.72c.5,0,.9-.13,1.21-.38.3-.25.46-.61.46-1.05,0-.48-.15-.84-.46-1.08-.3-.24-.71-.36-1.21-.36h-1.73l.22-.26v6.96h-1.14ZM92.97,118.36l-1.81-3.23h1.25l1.81,3.23h-1.25Z"/>
    <path class="st0" d="M135.05,118.53c-.4,0-.79-.06-1.17-.18-.38-.12-.72-.32-1.03-.6-.31-.28-.57-.66-.79-1.13l.95-.54c.27.48.56.83.88,1.04s.72.32,1.2.32.82-.1,1.06-.31c.24-.21.36-.49.36-.84,0-.21-.05-.4-.15-.56-.1-.16-.28-.31-.54-.44s-.62-.26-1.09-.38c-.59-.15-1.05-.34-1.39-.57-.33-.22-.56-.48-.69-.78-.13-.29-.19-.61-.19-.95,0-.43.1-.8.3-1.11.2-.32.48-.56.86-.74.37-.18.81-.27,1.32-.27.61,0,1.11.12,1.51.35.4.23.73.55,1,.95l-.96.62c-.24-.29-.48-.5-.74-.62-.25-.12-.53-.19-.82-.19-.44,0-.78.09-1.01.26-.23.17-.35.43-.35.75,0,.28.11.52.33.73.22.21.64.38,1.27.54.64.16,1.14.35,1.5.57.36.22.62.47.76.78.15.3.22.66.22,1.08s-.11.79-.32,1.13c-.21.33-.51.6-.9.8s-.84.3-1.37.3Z"/>
    <path class="st0" d="M154.95,111.66v-1.07h6.11v1.07h-6.11ZM157.38,118.36v-6.91h1.14v6.91h-1.14Z"/>
    <path class="st0" d="M182.1,118.47c-.59,0-1.1-.11-1.56-.34-.45-.23-.81-.57-1.07-1.02-.26-.45-.39-1.01-.39-1.67v-4.85h1.14v4.68c0,.67.16,1.19.49,1.56.32.37.78.55,1.39.55s1.07-.18,1.39-.55c.32-.37.48-.89.48-1.56v-4.68h1.14v4.85c0,.66-.13,1.22-.39,1.67-.26.45-.61.79-1.07,1.02-.45.23-.97.34-1.56.34Z"/>
    <path class="st0" d="M203.98,118.36v-7.77h2.55c.75,0,1.41.16,2,.47.58.31,1.04.76,1.38,1.34.33.58.5,1.28.5,2.09s-.17,1.53-.51,2.1c-.34.57-.8,1.01-1.39,1.31-.59.3-1.25.45-2,.45h-2.54ZM205.12,117.53l-.34-.25h1.69c.51,0,.97-.1,1.39-.3.41-.2.75-.51,1-.92.25-.41.38-.94.38-1.57s-.12-1.13-.37-1.56-.58-.74-.99-.95c-.41-.21-.88-.32-1.39-.32h-1.78l.42-.41v6.28Z"/>
    <path class="st0" d="M229.86,118.36h-1.14v-7.77h1.14v7.77Z"/>
    <path class="st0" d="M248.17,114.48c0-.58.1-1.11.3-1.6.2-.49.48-.91.85-1.27s.79-.63,1.28-.83c.49-.2,1.02-.3,1.6-.3s1.1.1,1.58.3c.49.2.91.48,1.27.83s.64.78.84,1.27c.2.49.3,1.02.3,1.6s-.1,1.1-.3,1.59c-.2.49-.48.91-.84,1.27s-.78.64-1.27.84c-.49.2-1.01.3-1.58.3s-1.11-.1-1.6-.3c-.49-.2-.92-.48-1.28-.84s-.65-.79-.85-1.27c-.2-.49-.3-1.02-.3-1.59ZM249.33,114.48c0,.56.12,1.05.38,1.49.25.44.59.78,1.03,1.03.43.25.92.38,1.47.38s1.03-.13,1.46-.38c.43-.25.76-.59,1.01-1.03.25-.44.37-.93.37-1.49s-.12-1.06-.37-1.49c-.25-.43-.58-.78-1.01-1.03s-.91-.38-1.46-.38-1.04.12-1.47.38-.78.59-1.03,1.03c-.25.43-.38.93-.38,1.49Z"/>
    <path class="st0" d="M295.16,116.06c-.24,0-.47-.06-.67-.18-.21-.12-.37-.29-.49-.49-.12-.21-.18-.43-.18-.67s.06-.48.18-.68c.12-.2.29-.36.49-.49.21-.12.43-.18.67-.18.26,0,.49.06.69.18.2.12.36.28.48.49.12.2.18.43.18.68s-.06.47-.18.67c-.12.21-.28.37-.48.49-.2.12-.43.18-.69.18Z"/>
    <path class="st0" d="M339.24,118.36h-4.49v-7.77h1.14v6.85l-.14-.16h3.49v1.07Z"/>
    <path class="st0" d="M358.63,118.36h-1.14v-7.77h1.14v7.77Z"/>
    <path class="st0" d="M379.95,118.53c-.4,0-.79-.06-1.17-.18-.38-.12-.72-.32-1.03-.6-.31-.28-.57-.66-.79-1.13l.95-.54c.27.48.56.83.88,1.04s.72.32,1.2.32.82-.1,1.06-.31c.24-.21.36-.49.36-.84,0-.21-.05-.4-.15-.56-.1-.16-.28-.31-.54-.44s-.62-.26-1.09-.38c-.59-.15-1.05-.34-1.39-.57-.33-.22-.56-.48-.69-.78-.13-.29-.19-.61-.19-.95,0-.43.1-.8.3-1.11.2-.32.48-.56.86-.74.37-.18.81-.27,1.32-.27.61,0,1.11.12,1.51.35.4.23.73.55,1,.95l-.96.62c-.24-.29-.48-.5-.74-.62-.25-.12-.53-.19-.82-.19-.44,0-.78.09-1.01.26-.23.17-.35.43-.35.75,0,.28.11.52.33.73.22.21.64.38,1.27.54.64.16,1.14.35,1.5.57.36.22.62.47.76.78.15.3.22.66.22,1.08s-.11.79-.32,1.13c-.21.33-.51.6-.9.8s-.84.3-1.37.3Z"/>
    <path class="st0" d="M400.88,118.36v-7.77h2.58c.52,0,.97.07,1.33.22.36.15.64.38.83.68.19.31.29.7.29,1.17,0,.4-.1.75-.3,1.05-.2.3-.46.54-.78.71s-.67.25-1.04.25l.08-.59c.46,0,.87.08,1.21.25.35.16.62.4.82.71.2.31.3.69.3,1.14,0,.71-.22,1.25-.66,1.62-.44.37-1.06.56-1.88.56h-2.77ZM402.02,111.31v6.25l-.46-.3h2.12c.43,0,.75-.11.99-.34.23-.22.35-.51.35-.86,0-.4-.11-.7-.34-.9-.22-.21-.55-.31-.98-.31h-2.14v-1.05h1.93c.4,0,.71-.09.92-.27s.32-.44.32-.78c0-.31-.11-.57-.33-.77-.22-.2-.52-.3-.92-.3h-1.88l.41-.38Z"/>
    <path class="st0" d="M424.09,114.48c0-.58.1-1.11.3-1.6.2-.49.48-.91.85-1.27s.79-.63,1.28-.83c.49-.2,1.02-.3,1.6-.3s1.1.1,1.58.3c.49.2.91.48,1.27.83s.64.78.84,1.27c.2.49.3,1.02.3,1.6s-.1,1.1-.3,1.59c-.2.49-.48.91-.84,1.27s-.79.64-1.27.84c-.49.2-1.01.3-1.58.3s-1.11-.1-1.6-.3c-.49-.2-.92-.48-1.28-.84s-.65-.79-.85-1.27c-.2-.49-.3-1.02-.3-1.59ZM425.26,114.48c0,.56.12,1.05.38,1.49.25.44.59.78,1.03,1.03.43.25.92.38,1.47.38s1.03-.13,1.46-.38c.43-.25.76-.59,1.01-1.03.25-.44.37-.93.37-1.49s-.12-1.06-.37-1.49c-.25-.43-.58-.78-1.01-1.03s-.91-.38-1.46-.38-1.04.12-1.47.38-.78.59-1.03,1.03c-.25.43-.38.93-.38,1.49Z"/>
    <path class="st0" d="M455.96,118.36l-5.02-6.51.64-.18v6.69h-1.14v-7.77h.97l4.85,6.28h-.47v-6.28h1.14v7.77h-.97Z"/>
  </g>
  <path class="st0" d="M19.5,84.19L50.12,16.21c.43-.96,1.39-1.59,2.45-1.59h21.28c1.06,0,2.02.62,2.45,1.59l30.62,67.99c.44.99-.28,2.1-1.36,2.1h-14.17c-.59,0-1.12-.34-1.36-.88l-6.02-13.38c-.24-.54-.77-.88-1.36-.88h-38.87c-.59,0-1.12.34-1.36.88l-6.02,13.38c-.24.54-.77.88-1.36.88h-14.17c-1.08,0-1.8-1.12-1.36-2.1ZM50.65,58.13h25.05c.99,0,1.65-1.02,1.24-1.92l-12.41-27.58c-.51-1.13-2.12-1.13-2.63,0l-12.44,27.66c-.39.87.24,1.84,1.19,1.84Z"/>
  <path class="st0" d="M111.6,84.58V16.34c0-.95.77-1.72,1.72-1.72h12.6c.95,0,1.72.77,1.72,1.72v55.21c0,.95.77,1.72,1.72,1.72h48.99c.95,0,1.72.77,1.72,1.72v9.59c0,.95-.77,1.72-1.72,1.72h-65.03c-.95,0-1.72-.77-1.72-1.72Z"/>
  <path class="st0" d="M185.03,84.58V16.34c0-.95.77-1.72,1.72-1.72h12.6c.95,0,1.72.77,1.72,1.72v55.21c0,.95.77,1.72,1.72,1.72h48.99c.95,0,1.72.77,1.72,1.72v9.59c0,.95-.77,1.72-1.72,1.72h-65.03c-.95,0-1.72-.77-1.72-1.72Z"/>
  <path class="st0" d="M409.12,84.8v-22.87c0-.77-.27-1.52-.76-2.11l-35.69-43.32c-.62-.75-.08-1.87.88-1.87h16.09c.84,0,1.64.38,2.16,1.04l24.61,30.55c.37.46,1.07.46,1.44,0l24.51-30.54c.53-.66,1.32-1.04,2.17-1.04h16.09c.97,0,1.5,1.12.88,1.87l-35.5,43.22c-.49.59-.76,1.34-.76,2.11v22.97c0,.83-.67,1.5-1.5,1.5h-13.14c-.83,0-1.5-.67-1.5-1.5Z"/>
  <path class="st0" d="M443.01,79.13h0c0-3.96,3.21-7.17,7.17-7.17h1.7c3.96,0,7.17,3.21,7.17,7.17h0c0,3.96-3.21,7.17-7.17,7.17h-1.7c-3.96,0-7.17-3.21-7.17-7.17Z"/>
  <path class="st0" d="M369.39,23.29c-7.02-6.12-17.14-9.17-30.37-9.17h-46.04c-13.23,0-23.36,3.06-30.37,9.17-7.02,6.11-10.53,15.15-10.53,27.12s3.51,21.1,10.53,27.22c7.02,6.12,16.91,9.17,29.67,9.17h47.25c12.9,0,22.86-3.06,29.87-9.17,7.02-6.11,10.53-15.19,10.53-27.22s-3.51-21-10.53-27.12ZM363.08,53.7c0,2.85-.51,5.71-1.72,8.29-1.39,2.98-3.4,5.31-6.05,6.99-4.11,2.61-9.91,3.91-17.39,3.91h-43.54c-7.62,0-13.5-1.3-17.64-3.91-2.66-1.67-4.69-4-6.09-6.96-1.22-2.59-1.73-5.46-1.73-8.33v-7.17c0-2.83.52-5.67,1.73-8.24,1.39-2.94,3.42-5.25,6.09-6.92,4.14-2.6,9.92-3.91,17.34-3.91h43.84c7.42,0,13.2,1.3,17.34,3.91,2.66,1.68,4.69,3.98,6.08,6.93,1.22,2.57,1.73,5.41,1.73,8.24v7.18Z"/>
</svg>