<?xml version="1.0" encoding="UTF-8"?>
<svg id="Layer_1" xmlns="http://www.w3.org/2000/svg" version="1.1" viewBox="0 0 476.53 132.86">
  <!-- Generator: Adobe Illustrator 30.0.0, SVG Export Plug-In . SVG Version: 2.1.1 Build 123)  -->
  <defs>
    <style>
      .st0 {
        fill: #ebe6d8;
      }
    </style>
  </defs>
  <path class="st0" d="M19.5,98.1L50.12,30.11c.43-.96,1.39-1.59,2.45-1.59h21.28c1.06,0,2.02.62,2.45,1.59l30.62,67.99c.44.99-.28,2.1-1.36,2.1h-14.17c-.59,0-1.12-.34-1.36-.88l-6.02-13.38c-.24-.54-.77-.88-1.36-.88h-38.87c-.59,0-1.12.34-1.36.88l-6.02,13.38c-.24.54-.77.88-1.36.88h-14.17c-1.08,0-1.8-1.12-1.36-2.1ZM50.65,72.03h25.05c.99,0,1.65-1.02,1.24-1.92l-12.41-27.58c-.51-1.13-2.12-1.13-2.63,0l-12.44,27.66c-.39.87.24,1.84,1.19,1.84Z"/>
  <path class="st0" d="M111.6,98.48V30.24c0-.95.77-1.72,1.72-1.72h12.6c.95,0,1.72.77,1.72,1.72v55.21c0,.95.77,1.72,1.72,1.72h48.99c.95,0,1.72.77,1.72,1.72v9.59c0,.95-.77,1.72-1.72,1.72h-65.03c-.95,0-1.72-.77-1.72-1.72Z"/>
  <path class="st0" d="M185.03,98.48V30.24c0-.95.77-1.72,1.72-1.72h12.6c.95,0,1.72.77,1.72,1.72v55.21c0,.95.77,1.72,1.72,1.72h48.99c.95,0,1.72.77,1.72,1.72v9.59c0,.95-.77,1.72-1.72,1.72h-65.03c-.95,0-1.72-.77-1.72-1.72Z"/>
  <path class="st0" d="M409.12,98.7v-22.87c0-.77-.27-1.52-.76-2.11l-35.69-43.32c-.62-.75-.08-1.87.88-1.87h16.09c.84,0,1.64.38,2.16,1.04l24.61,30.55c.37.46,1.07.46,1.44,0l24.51-30.54c.53-.66,1.32-1.04,2.17-1.04h16.09c.97,0,1.5,1.12.88,1.87l-35.5,43.22c-.49.59-.76,1.34-.76,2.11v22.97c0,.83-.67,1.5-1.5,1.5h-13.14c-.83,0-1.5-.67-1.5-1.5Z"/>
  <path class="st0" d="M443.01,93.03h0c0-3.96,3.21-7.17,7.17-7.17h1.7c3.96,0,7.17,3.21,7.17,7.17h0c0,3.96-3.21,7.17-7.17,7.17h-1.7c-3.96,0-7.17-3.21-7.17-7.17Z"/>
  <path class="st0" d="M369.39,37.2c-7.02-6.12-17.14-9.17-30.37-9.17h-46.04c-13.23,0-23.36,3.06-30.37,9.17-7.02,6.11-10.53,15.15-10.53,27.12s3.51,21.1,10.53,27.22c7.02,6.12,16.91,9.17,29.67,9.17h47.25c12.9,0,22.86-3.06,29.87-9.17,7.02-6.11,10.53-15.19,10.53-27.22s-3.51-21-10.53-27.12ZM363.08,67.61c0,2.85-.51,5.71-1.72,8.29-1.39,2.98-3.4,5.31-6.05,6.99-4.11,2.61-9.91,3.91-17.39,3.91h-43.54c-7.62,0-13.5-1.3-17.64-3.91-2.66-1.67-4.69-4-6.09-6.96-1.22-2.59-1.73-5.46-1.73-8.33v-7.17c0-2.83.52-5.67,1.73-8.24,1.39-2.94,3.42-5.25,6.09-6.92,4.14-2.6,9.92-3.91,17.34-3.91h43.84c7.42,0,13.2,1.3,17.34,3.91,2.66,1.68,4.69,3.98,6.08,6.93,1.22,2.57,1.73,5.41,1.73,8.24v7.18Z"/>
</svg>