<?xml version="1.0" encoding="UTF-8"?>
<svg id="Layer_1" xmlns="http://www.w3.org/2000/svg" version="1.1" viewBox="0 0 490.41 194.67">
  <!-- Generator: Adobe Illustrator 30.0.0, SVG Export Plug-In . SVG Version: 2.1.1 Build 123)  -->
  <defs>
    <style>
      .st0 {
        fill: #ebe6d8;
      }
    </style>
  </defs>
  <path class="st0" d="M131.57,82.47c5.41-5.72,18.49-22.68,11.89-30.35-7.06-8.2-26.3-2.15-34.98,1.22-34.87,13.56-82.37,59.36-95.83,94.34s10.76,40.19,39.29,37.45c42.22-4.04,84.8-20.54,128.48-15.67,6.1.68,18.32,1.34,17.4,9.84l-3.02.02c-.34-5.26-9.94-5.77-14.24-6.19-44.54-4.38-89.36,12.87-132.83,16.41-42.56,3.47-53.71-20.26-34.05-55.87,18.53-33.57,77.54-91.81,118.43-89.87,28.05,1.33,15.53,27.41,4.38,40.57-3.28,3.88-14.45,14.33-18.95,15.72-4.89,1.51-4.82-2.33-1.71-5.19,4.68-4.31,10.84-7.26,15.74-12.45Z"/>
  <path class="st0" d="M133.38,152.95c.83,1.06,18.77-16.53,20.16-17.87,4.14-4.03,5.3-8.9,12.66-8.42.88.06,1.59,1.17,2.21.87,2.18-1.05,5.24-9.15,8.46-7.12.8.5.68,1.43.41,2.2l-9.51,23.71c1.32,1.19,9.14-7.57,10.22-8.65,1.41-1.4,4.2-3.11,5.38-4.53,1.1-1.32,5.78-11.76,8.14-8.55,1.21,1.64-2.04,6.77-2.82,8.76-.45,1.15-2.98,7.64-2.54,8.08,4.55-.49,9.86-10.52,13.56-10.32s-1.4,8.97,2.04,8.53c.65-.08,10.36-6,11.26-6.8,5.4-4.85,8.13-13.39,17.69-8.22l31.91-57.11c2.84-2.83,4.76-1.37,3.28,2.48-5.4,14.06-14.25,29.43-20.62,43.46-5.88,12.96-11.96,26.12-17.5,39.21-1.09,2.58-3.6,7.57-4.1,9.92-.72,3.36,1.39,6.57-4.5,5.51-1.26-1.99,2.17-10.93,3.11-13.4,3.64-9.58,9.09-18.56,12.18-28.34-3.86,5.05-7.49,9.68-12.59,13.61-4.36,3.36-10.95,8.21-11.11-1.14-2.15.56-3.57,2.45-5.64,3.37s-6.54,2.28-8.29.62c-1.01-.96-.32-4.18-1.79-3.5-1.61,2.72-10.57,9.61-12.82,5.33-.63-1.19.17-4.97-1.36-4.27-2.66,3.62-17.73,17.47-17.45,5.81l3.1-10.3c-2.69,3.39-9.44,10.78-14.09,7.61-.29-.2.02-1.43-1.13-.96-5.13,3.86-12.87,15.3-19.93,14.17-4.88-.78-1.15-12.6-.21-15.72,8.19-27.23,26.9-53.33,38.66-79.18.91-2,5.36-5.04,6.31-1.67.41,1.47-3.51,5.78-4.52,7.54-9.75,16.97-20.04,37.12-28.16,54.93-1.9,4.17-12.29,27.48-10.05,30.34ZM215.1,139.28c1.54,1.14,11.47-8.78,11.93-10.65.67-2.73-2.66-1.61-4.08-.83-3.52,1.94-6.12,7.97-7.84,11.48ZM165.41,130.36c-3.24-1.25-10.8,8.66-9.56,10.16,1.6-.12,10.22-9.7,9.56-10.16Z"/>
  <path class="st0" d="M448.84,10.08c-1.3-.41-2.1.21-3.13.77-7.54,4.04-20.55,17.31-26.76,23.83-36.25,37.97-64.6,82.61-97.86,122.99-3.02,3.67-12.39,15.06-16.21,16.49-5.03,1.9-8.33-.31-9.03-5.43-2.98-21.79,13.31-73.66,20.15-96.29.85-2.8,6.29-21.06,7.21-21.78,1.24-.97,3.46-.85,3.36.85-7.78,26.31-16.1,53.12-21.83,79.96-2.26,10.6-5.7,25.48-4.66,36.11.14,1.43.07,2.5,1.57,3.23,4.25-2.07,7.16-5.95,10.18-9.45,38.73-44.92,71.66-100.74,115.76-140.88,3.56-3.24,16.86-14.8,21.01-14.82s5.75,4.6,2.38,6.74c-1.77.51-1.99-.96-2.12-2.33Z"/>
  <path class="st0" d="M369.87,126.55c1.05.2,1.8-.29,2.68-.71,6.92-3.35,13.95-10.07,19.59-14.97,9.99-8.69,15.6,1.38,4.47,7.55-1.8,1-5.94,1.91-6.67,2.59-.95.88-3.61,7.79-2.78,8.63.87.12,1.65-.05,2.48-.29,3.94-1.15,16.93-9.17,20.05-12.04s3.9-7.4,6.86-10.42l1.81.54c1.63,2.33-6.64,15.69-7.12,19.13.89.16,1.52-.15,2.29-.48,1.84-.79,12.18-7.68,13.72-9.11,1.9-1.74,2.37-6.84,5.32-4.63,2.16,1.61.4,3.6,1.19,5.59,5.26-3.46,13.13-13.44,19.44-7.09-1.28,1.87-2.87.79-5.07,1.7-8.34,3.42-13.37,11.76-19.01,18.01-1.93,2.13-2.69,2.85-5.59,1.19l2.82-9.5c-4.54,2.22-13.23,10.68-18.39,9.13-3.43-1.03-.58-5.62-.74-7.89-4.74,3.54-16.98,12.22-22.78,8.56-3.68-2.32-.04-8.83-.38-9.18l-12.79,7.87c-1.8.59-4.36,1.73-5.63-.28-2.84-4.52,7.42-18.84,9.2-23.6.86-.09,1.58-.23,2.14.58,1.91,2.77-6.07,15.61-7.11,19.12Z"/>
  <path class="st0" d="M246.06,141.4c.45.43,2.95-1.3,3.6-1.7,3.83-2.35,12.21-7.8,15.31-10.6,1.17-1.05,2.11-3.41,3.28-4.44,6.62-5.88,11.25.9,9.04,7.74l13.81-4.12c.92-.45,1.43,1.18,1.42,1.61-.03,2.51-9.04,5.33-11.26,5.95-1.58.44-3.88-.07-5.28.88-.4.27-2.37,4.73-3.33,6-6.9,9.07-13.69,3.11-10.7-6.74-4.72,2.41-14.21,12.03-19.66,10.4-1.95-1.19-1.11-4.5-.63-6.41.53-2.12,8.11-18.06,9.09-18.4l1.83.49c2.05,2.78-6.23,15.53-6.51,19.34ZM267.99,131.46c-3.08,6.1-4.17,19.44,2.5,5.67l-2.5-5.67Z"/>
  <path class="st0" d="M464.95,129.02c.4.44,4.06-2.62,4.61-3.1,2.09-1.79,3.8-4.05,5.87-5.85,1.4-1.21,7.74-6.72,9.27-5.23.17,1.14,0,1.82-.58,2.8-.3.51-7.52,7.01-8.67,7.99-2.95,2.54-10.03,9.62-13.94,7.12s.63-9.71,1.58-12.98c-.57-.68-12.17,12.6-14.42,4.18-1.33-4.97,6.9-13.97,11.69-14.64,2.02-.28,4.88,1.07,5.21.92,1.99-.9,4.29-6.04,5.55-6.8s3.6-.58,3.74,1.24c.12,1.59-6.95,16.07-8.17,19-.36.87-2.17,4.87-1.74,5.35ZM462.47,113c-3.22-1.53-11.1,8.28-9.87,9.86,1.77-.11,10.64-9.28,9.87-9.86Z"/>
  <path class="st0" d="M259.59,105.94c1.08-.28,2.23-.4,3.29.06,3.3,2.05-6.16,7.46-8.5,5.85-2.14-1.29,3.82-5.55,5.22-5.92Z"/>
  <path class="st0" d="M387.77,91.41c.97,4.42-5.74,7.04-9.26,5.54-1.52-2.21,7.04-6.74,9.26-5.54Z"/>
  <path class="st0" d="M429.13,91.41c1.76,3.97-9.31,8.02-9.88,5.23.25-2.49,8.49-6.64,9.88-5.23Z"/>
</svg>